<?xml version="1.0" encoding="utf-8"?>
<!-- Generator: Adobe Illustrator 23.0.1, SVG Export Plug-In . SVG Version: 6.00 Build 0)  -->
<svg version="1.1" id="Layer_1" xmlns="http://www.w3.org/2000/svg" xmlns:xlink="http://www.w3.org/1999/xlink" x="0px" y="0px"
	 viewBox="0 0 2245.1 574" style="enable-background:new 0 0 2245.1 574;" xml:space="preserve">
<style type="text/css">
	.st0{fill:url(#SVGID_1_);}
	.st1{fill:url(#SVGID_2_);}
</style>
<g transform="translate(252.342 18.923)">
	
		<linearGradient id="SVGID_1_" gradientUnits="userSpaceOnUse" x1="187.6045" y1="652.4041" x2="188.4585" y2="652.4651" gradientTransform="matrix(2038.1005 0 0 -573.9984 -382278.2188 374750.1875)">
		<stop  offset="0" style="stop-color:#900BAD"/>
		<stop  offset="1" style="stop-color:#6717CA"/>
	</linearGradient>
	<path class="st0" d="M-201.1-17.7l1937-1.2l49.9,465.3c0,0-1069.1,176.9-1634.1,79.4c-168.7-32-336-137.6-382.5-245.3
		C-292.8,137.1-201.1-17.7-201.1-17.7z"/>
	
		<linearGradient id="SVGID_2_" gradientUnits="userSpaceOnUse" x1="188.4435" y1="652.4088" x2="187.4435" y2="652.4088" gradientTransform="matrix(2051.1294 0 0 -570.7299 -384529.1875 372615.625)">
		<stop  offset="0" style="stop-color:#900BAD"/>
		<stop  offset="1" style="stop-color:#6717CA"/>
	</linearGradient>
	<path class="st1" d="M-7.1-17.7l2000-1.2l-0.1,434.7c0,0-1082.2,207.5-1647.2,110c-168.7-32-336-137.6-382.5-245.3
		C-98.8,137.1-7.1-17.7-7.1-17.7z"/>
</g>
</svg>
