<svg xmlns="http://www.w3.org/2000/svg" viewBox="0 0 161.899 48.481"><defs><style>.a{fill:#fff;}</style></defs><g transform="translate(889.002 266.212)"><g transform="translate(-889.002 -266.212)"><path class="a" d="M317.693,145.676v.053a6.058,6.058,0,1,1-12.117,0v-.053h-6.061v.053a12.117,12.117,0,0,0,12.117,12.121,11.991,11.991,0,0,0,6.061-1.624v1.579h6.06v-12.13Zm-6.061-6.007a6.057,6.057,0,0,1,4.583,2.094h6.873a12.118,12.118,0,0,0-22.9,0h6.873A6.024,6.024,0,0,1,311.633,139.668Z" transform="translate(-272.243 -121.442)"/><path class="a" d="M18.182,145.23v.009a6.061,6.061,0,1,1-12.121,0v-.009H0v24.247H6.061V155.723a11.912,11.912,0,0,0,6.061,1.637,12.121,12.121,0,0,0,12.121-12.122v-.008Zm-6.061-6.052a6.033,6.033,0,0,1,4.619,2.139h6.85a12.108,12.108,0,0,0-11.469-8.2,11.869,11.869,0,0,0-6.061,1.637v-1.637H0v8.2H7.5A6.033,6.033,0,0,1,12.121,139.178Z" transform="translate(0 -120.996)"/><path class="a" d="M1226.744,133.606a12.121,12.121,0,1,0,6.061,22.619V157.8h6.056V145.639A12.115,12.115,0,0,0,1226.744,133.606Zm6.061,12.121a6.016,6.016,0,1,1,0-.089Z" transform="translate(-1104.023 -121.44)"/><path class="a" d="M927.235,12.121a11.893,11.893,0,0,0-6.06,1.637V0h-6.061V36.364h6.061V34.727a11.937,11.937,0,0,0,6.061,1.637,12.121,12.121,0,1,0,0-24.243Zm0,18.182a6.061,6.061,0,1,1,6.061-6.061,6.061,6.061,0,0,1-6.061,6.061Z" transform="translate(-831.787)"/><rect class="a" width="6.061" height="8.199" transform="translate(54.541 12.121)"/><rect class="a" width="6.061" height="8.199" transform="translate(72.723 12.121)"/><path class="a" d="M617.159,266.139h6.061v24.247h-6.061V276.632a11.925,11.925,0,0,1-6.061,1.637A12.1,12.1,0,0,1,599,266.463h-.018v-.324h6.061v.1a6.061,6.061,0,1,0,12.121,0Z" transform="translate(-544.436 -241.905)"/><path class="a" d="M1532.839,149.088l4.288,4.288a12.122,12.122,0,1,1,0-17.135,11.93,11.93,0,0,1,3.121,5.439l-7.408,7.409-4.288-4.272,4.288-4.288a6.058,6.058,0,1,0,0,8.56Z" transform="translate(-1378.349 -120.604)"/></g></g></svg>