<svg xmlns="http://www.w3.org/2000/svg" xmlns:xlink="http://www.w3.org/1999/xlink" viewBox="0 0 278.693 175.008"><defs><style>.a{fill:#fff;}.b{stroke:#707070;fill:url(#a);}.c{opacity:0.31;clip-path:url(#b);}</style><linearGradient id="a" x1="0.5" x2="0.5" y2="1" gradientUnits="objectBoundingBox"><stop offset="0" stop-color="#6717ca"/><stop offset="1" stop-color="#900bad"/></linearGradient><clipPath id="b"><path class="a" d="M-884.065,817h247.089v26.46H-884.065v52.293h259.5V762.867h-259.5Z" transform="translate(942.558)"/></clipPath></defs><g transform="translate(-1282 -824.314)"><path class="b" d="M-713.563,558.241C-814.416,526.01-964.04,597.166-909.286,667.916c32.359,41.813,159.376,69.97,203,49.4,29.888-14.091-3.257-64.139,8.318-77.979C-683.411,618.544-612.711,590.472-713.563,558.241Z" transform="translate(2220.506 274.616)"/><g class="c" transform="translate(1223.506 81)"><g transform="translate(530.635 -325.365)"><g transform="translate(-392 1096)"><g transform="translate(3.138 20.012)"><path class="a" d="M22.113,36.712a2.472,2.472,0,0,1-.6-.074L5.123,32.48a2.434,2.434,0,0,1-1.7-3.163,57.95,57.95,0,0,1,10.4-18.222,2.432,2.432,0,0,1,1.755-.862,2.4,2.4,0,0,1,1.824.71L29.351,22.883a2.433,2.433,0,0,1,.2,3.208,37.085,37.085,0,0,0-5.182,9.084A2.43,2.43,0,0,1,22.113,36.712ZM8.961,28.436l11.732,2.976a41.932,41.932,0,0,1,3.743-6.564L15.891,16.3A53.044,53.044,0,0,0,8.961,28.436Z" transform="translate(-3.29 -10.229)"/></g><g transform="translate(19.99)"><path class="a" d="M72.6,31.935a2.413,2.413,0,0,1-1.5-.515,36.453,36.453,0,0,0-45.013,0,2.426,2.426,0,0,1-3.215-.2L10.932,19.282a2.432,2.432,0,0,1,.154-3.581,58.194,58.194,0,0,1,75.019,0,2.432,2.432,0,0,1,.152,3.579L74.317,31.223A2.426,2.426,0,0,1,72.6,31.935Zm-24-13.157A41.019,41.019,0,0,1,72.36,26.3l8.54-8.54a53.318,53.318,0,0,0-64.606,0L24.83,26.3A41.018,41.018,0,0,1,48.595,18.778Z" transform="translate(-10.22 -2)"/></g><g transform="translate(0 46.882)"><path class="a" d="M5.161,44.238a2.431,2.431,0,0,1-2.4-2.057,58.958,58.958,0,0,1,0-18.842,2.43,2.43,0,0,1,3-1.983l16.391,4.184a2.432,2.432,0,0,1,1.814,2.648,37.194,37.194,0,0,0-.323,4.572,37.394,37.394,0,0,0,.323,4.6,2.434,2.434,0,0,1-1.817,2.65L5.759,44.165A2.439,2.439,0,0,1,5.161,44.238ZM7.208,26.745a53.891,53.891,0,0,0-.344,6.015,54.606,54.606,0,0,0,.344,6.018l11.708-2.971c-.09-1.1-.135-2.1-.135-3.047s.043-1.933.135-3.028Z" transform="translate(-2 -21.278)"/></g><g transform="translate(3.138 20.009)"><path class="a" d="M58.517,106.948A58.5,58.5,0,0,1,3.427,67.872a2.431,2.431,0,0,1,1.693-3.163l16.391-4.182a2.424,2.424,0,0,1,2.864,1.468A36.695,36.695,0,0,0,95.237,48.583,36.243,36.243,0,0,0,87.462,26.1a2.431,2.431,0,0,1,.2-3.216L99.6,10.944a2.3,2.3,0,0,1,1.824-.71,2.432,2.432,0,0,1,1.755.862,58.3,58.3,0,0,1-44.659,95.852ZM8.961,68.748A53.485,53.485,0,1,0,101.117,16.3L92.58,24.842A40.971,40.971,0,0,1,100.1,48.583,41.558,41.558,0,0,1,20.688,65.756Z" transform="translate(-3.29 -10.228)"/></g></g></g></g><path class="a" d="M-33.006-2.193h-4.505L-38.259,0h-3.06l4.4-11.934h3.349L-29.164,0h-3.094Zm-.748-2.21-1.5-4.42L-36.763-4.4Zm11.73-5.185A3.284,3.284,0,0,1-19.431-8.5a4.364,4.364,0,0,1,.961,2.992V0h-2.907V-5.168a2.091,2.091,0,0,0-.5-1.488,1.742,1.742,0,0,0-1.334-.535,1.817,1.817,0,0,0-1.4.561,2.269,2.269,0,0,0-.519,1.6V0h-2.907V-9.486h2.907v1.734A3.129,3.129,0,0,1-23.919-9.1,3.565,3.565,0,0,1-22.024-9.588Zm9.078-.017a3.434,3.434,0,0,1,1.87.493A2.964,2.964,0,0,1-9.92-7.769V-9.486h2.89V0H-9.92V-1.717A2.964,2.964,0,0,1-11.076-.374a3.434,3.434,0,0,1-1.87.493,3.842,3.842,0,0,1-2.1-.587,4.013,4.013,0,0,1-1.462-1.692,5.862,5.862,0,0,1-.535-2.584,5.849,5.849,0,0,1,.535-2.593,4.022,4.022,0,0,1,1.462-1.683A3.842,3.842,0,0,1-12.946-9.6Zm.935,2.55a1.958,1.958,0,0,0-1.5.612,2.4,2.4,0,0,0-.569,1.7,2.4,2.4,0,0,0,.569,1.7,1.958,1.958,0,0,0,1.5.612,1.965,1.965,0,0,0,1.5-.629A2.369,2.369,0,0,0-9.92-4.743a2.363,2.363,0,0,0-.586-1.692A1.978,1.978,0,0,0-12.011-7.055Zm9.894-5.525V0H-5.024V-12.58Zm4.2,3.094L4.361-3.672,6.486-9.486H9.7L3.783,4.522H.587L2.814-.357-1.164-9.486ZM16.04-2.5V0H14.731a3.767,3.767,0,0,1-2.592-.825,3.5,3.5,0,0,1-.927-2.729V-7.038H9.937V-9.486h1.275v-2.329h2.907v2.329h1.9v2.448h-1.9V-3.5a1.066,1.066,0,0,0,.229.782,1.1,1.1,0,0,0,.774.221Zm1.36-9.656a1.419,1.419,0,0,1,.476-1.1,1.8,1.8,0,0,1,1.258-.434,1.8,1.8,0,0,1,1.258.434,1.419,1.419,0,0,1,.476,1.1,1.4,1.4,0,0,1-.476,1.08,1.8,1.8,0,0,1-1.258.433,1.8,1.8,0,0,1-1.258-.433A1.4,1.4,0,0,1,17.4-12.155Zm3.179,2.669V0H17.672V-9.486Zm6.29-.119a4.711,4.711,0,0,1,3.077,1.011,4.485,4.485,0,0,1,1.564,2.78H28.433a1.623,1.623,0,0,0-.561-.952,1.66,1.66,0,0,0-1.071-.34,1.554,1.554,0,0,0-1.258.6,2.724,2.724,0,0,0-.493,1.76,2.724,2.724,0,0,0,.493,1.76,1.554,1.554,0,0,0,1.258.6,1.66,1.66,0,0,0,1.071-.34,1.623,1.623,0,0,0,.561-.952H31.51a4.485,4.485,0,0,1-1.564,2.78A4.711,4.711,0,0,1,26.869.119,5.1,5.1,0,0,1,24.4-.468,4.191,4.191,0,0,1,22.7-2.159a5.248,5.248,0,0,1-.612-2.584,5.3,5.3,0,0,1,.6-2.593,4.136,4.136,0,0,1,1.691-1.683A5.148,5.148,0,0,1,26.869-9.6Zm9.605,0a4.352,4.352,0,0,1,2.882.9,3.915,3.915,0,0,1,1.352,2.38h-2.72a1.507,1.507,0,0,0-.535-.909,1.626,1.626,0,0,0-1.045-.332,1.143,1.143,0,0,0-.748.213.742.742,0,0,0-.255.6.708.708,0,0,0,.467.663,7.455,7.455,0,0,0,1.471.442,14.6,14.6,0,0,1,1.785.518,2.945,2.945,0,0,1,1.207.859,2.372,2.372,0,0,1,.51,1.6A2.451,2.451,0,0,1,40.4-1.224a2.91,2.91,0,0,1-1.275.986,4.982,4.982,0,0,1-1.972.357,5.078,5.078,0,0,1-3.077-.85,3.586,3.586,0,0,1-1.411-2.431h2.805a1.262,1.262,0,0,0,.519.935,1.952,1.952,0,0,0,1.164.323,1.084,1.084,0,0,0,.748-.23.773.773,0,0,0,.255-.6.726.726,0,0,0-.468-.706,8.6,8.6,0,0,0-1.521-.451,12.166,12.166,0,0,1-1.734-.476,2.863,2.863,0,0,1-1.173-.825,2.3,2.3,0,0,1-.493-1.556,2.538,2.538,0,0,1,.969-2.066A4.223,4.223,0,0,1,36.474-9.6Z" transform="translate(1420.506 918)"/></g></svg>