<svg xmlns="http://www.w3.org/2000/svg" xmlns:xlink="http://www.w3.org/1999/xlink" viewBox="0 0 279.788 162.844"><defs><style>.a{fill:#fff;}.b{stroke:#707070;fill:url(#a);}.c{opacity:0.31;clip-path:url(#b);}</style><linearGradient id="a" x1="0.5" x2="0.5" y2="1" gradientUnits="objectBoundingBox"><stop offset="0" stop-color="#6717ca"/><stop offset="1" stop-color="#900bad"/></linearGradient><clipPath id="b"><path class="a" d="M-884.065,817h133.523v26.46H-884.065v52.293h140.227V762.867H-884.065Z" transform="translate(1002.193)"/></clipPath></defs><g transform="translate(-828.481 -830.636)"><g transform="translate(0 -6)"><path class="b" d="M-800.393,558.408c-124.273-19.687-163.647,38.759-108.893,109.508S-691.5,720.209-663.2,686.372-676.12,578.094-800.393,558.408Z" transform="translate(1762.406 282.616)"/><g class="c" transform="translate(778.406 87)"><g transform="translate(850.507 71.079) rotate(45)"><path class="a" d="M7,977.362v22.229h3.923a10.461,10.461,0,0,1,0,20.921H7v22.229H119.451v-22.229h-3.923a10.46,10.46,0,1,1,0-20.921h3.923V977.362H7Zm7.845,7.845H78.916V1034.9H14.845v-7.028a18.251,18.251,0,0,0,0-35.672v-6.987Zm71.916,0h24.844v6.987a18.251,18.251,0,0,0,0,35.672v7.028H86.762Z" transform="translate(0)"/></g></g></g><path class="a" d="M-30.847-12.019v2.312h-3.264V0h-2.924V-9.707h-3.23v-2.312Zm.952-.136a1.419,1.419,0,0,1,.476-1.1,1.8,1.8,0,0,1,1.258-.434,1.8,1.8,0,0,1,1.258.434,1.419,1.419,0,0,1,.476,1.1,1.4,1.4,0,0,1-.476,1.08,1.8,1.8,0,0,1-1.258.433,1.8,1.8,0,0,1-1.258-.433A1.4,1.4,0,0,1-29.895-12.155Zm3.179,2.669V0h-2.907V-9.486Zm6.29-.119a4.711,4.711,0,0,1,3.077,1.011,4.485,4.485,0,0,1,1.564,2.78h-3.077a1.623,1.623,0,0,0-.561-.952,1.66,1.66,0,0,0-1.071-.34,1.554,1.554,0,0,0-1.258.6,2.724,2.724,0,0,0-.493,1.76,2.724,2.724,0,0,0,.493,1.76,1.554,1.554,0,0,0,1.258.6,1.66,1.66,0,0,0,1.071-.34,1.623,1.623,0,0,0,.561-.952h3.077a4.485,4.485,0,0,1-1.564,2.78A4.711,4.711,0,0,1-20.426.119,5.1,5.1,0,0,1-22.9-.468a4.191,4.191,0,0,1-1.691-1.692A5.248,5.248,0,0,1-25.2-4.743a5.3,5.3,0,0,1,.6-2.593,4.136,4.136,0,0,1,1.691-1.683A5.148,5.148,0,0,1-20.426-9.6ZM-8.526,0l-2.839-4.029V0h-2.907V-12.58h2.907v6.9l2.839-3.808h3.417L-8.934-4.743-5.024,0ZM5.041-5a4.01,4.01,0,0,1-.085.782H-1.623a2.2,2.2,0,0,0,.544,1.538A1.754,1.754,0,0,0,.179-2.21,1.719,1.719,0,0,0,1.25-2.533a1.508,1.508,0,0,0,.561-.833H4.888a4.02,4.02,0,0,1-.816,1.794,4.349,4.349,0,0,1-1.6,1.241A5.06,5.06,0,0,1,.315.119,5.1,5.1,0,0,1-2.159-.468,4.191,4.191,0,0,1-3.85-2.159a5.248,5.248,0,0,1-.612-2.584,5.3,5.3,0,0,1,.6-2.593A4.136,4.136,0,0,1-2.167-9.019,5.148,5.148,0,0,1,.315-9.6,5.146,5.146,0,0,1,2.8-9.027,4.083,4.083,0,0,1,4.454-7.4,4.833,4.833,0,0,1,5.041-5ZM2.1-5.44a1.748,1.748,0,0,0-.5-1.4A1.846,1.846,0,0,0,.315-7.31a1.9,1.9,0,0,0-1.326.476,1.993,1.993,0,0,0-.6,1.394ZM11.925-2.5V0H10.616A3.767,3.767,0,0,1,8.024-.825,3.5,3.5,0,0,1,7.1-3.553V-7.038H5.822V-9.486H7.1v-2.329H10v2.329h1.9v2.448H10V-3.5a1.066,1.066,0,0,0,.229.782,1.1,1.1,0,0,0,.774.221Zm1.36-9.656a1.419,1.419,0,0,1,.476-1.1,1.8,1.8,0,0,1,1.258-.434,1.8,1.8,0,0,1,1.258.434,1.419,1.419,0,0,1,.476,1.1,1.4,1.4,0,0,1-.476,1.08,1.8,1.8,0,0,1-1.258.433,1.8,1.8,0,0,1-1.258-.433A1.4,1.4,0,0,1,13.286-12.155Zm3.179,2.669V0H13.558V-9.486Zm8.024-.1A3.284,3.284,0,0,1,27.081-8.5a4.364,4.364,0,0,1,.961,2.992V0H25.134V-5.168a2.091,2.091,0,0,0-.5-1.488A1.742,1.742,0,0,0,23.3-7.191a1.817,1.817,0,0,0-1.4.561,2.269,2.269,0,0,0-.519,1.6V0H18.47V-9.486h2.907v1.734A3.129,3.129,0,0,1,22.593-9.1,3.565,3.565,0,0,1,24.488-9.588ZM33.567-9.6a3.434,3.434,0,0,1,1.87.493,2.964,2.964,0,0,1,1.156,1.343V-9.486h2.89V-.051a5.45,5.45,0,0,1-.51,2.389,3.911,3.911,0,0,1-1.564,1.692,5.032,5.032,0,0,1-2.618.629,5.381,5.381,0,0,1-3.426-1.012A4.115,4.115,0,0,1,29.827.9H32.7a1.44,1.44,0,0,0,.62.9,2.245,2.245,0,0,0,1.266.323,2.038,2.038,0,0,0,1.454-.518,2.182,2.182,0,0,0,.552-1.658V-1.717A2.964,2.964,0,0,1,35.437-.374a3.434,3.434,0,0,1-1.87.493,3.842,3.842,0,0,1-2.1-.587,4.013,4.013,0,0,1-1.462-1.692,5.862,5.862,0,0,1-.535-2.584,5.849,5.849,0,0,1,.535-2.593,4.022,4.022,0,0,1,1.462-1.683A3.842,3.842,0,0,1,33.567-9.6Zm.935,2.55a1.958,1.958,0,0,0-1.5.612,2.4,2.4,0,0,0-.569,1.7A2.4,2.4,0,0,0,33-3.043a1.958,1.958,0,0,0,1.5.612,1.965,1.965,0,0,0,1.5-.629,2.369,2.369,0,0,0,.586-1.683,2.363,2.363,0,0,0-.586-1.692A1.978,1.978,0,0,0,34.5-7.055Z" transform="translate(962.406 918)"/></g></svg>