<?xml version="1.0" encoding="utf-8"?>
<!-- Generator: Adobe Illustrator 23.0.1, SVG Export Plug-In . SVG Version: 6.00 Build 0)  -->
<svg version="1.1" id="Layer_1" xmlns="http://www.w3.org/2000/svg" xmlns:xlink="http://www.w3.org/1999/xlink" x="0px" y="0px"
	 viewBox="0 0 286.4 168.2" style="enable-background:new 0 0 286.4 168.2;" xml:space="preserve">
<style type="text/css">
	.st0{fill:url(#SVGID_1_);stroke:#707070;}
	.st1{opacity:0.17;}
	.st2{fill:#FFFFFF;}
</style>
<g transform="translate(-369.477 -824.804)">
	<g transform="translate(0 1)">
		
			<linearGradient id="SVGID_1_" gradientUnits="userSpaceOnUse" x1="93.9476" y1="1204.8062" x2="93.9476" y2="1203.8062" gradientTransform="matrix(285.3995 0 0 -167.2095 -26299.8848 202279.3594)">
			<stop  offset="0" style="stop-color:#6717CA"/>
			<stop  offset="1" style="stop-color:#900BAD"/>
		</linearGradient>
		<path class="st0" d="M592.4,828.5c-99.8-11.4-154.7,0.7-186.1,30.2c-36,35-51.7,96.5-16.6,115.4c54.1,29.1,186.1,18.7,224.6-9.4
			S692.2,840,592.4,828.5z"/>
		<g transform="translate(443.938 852)" class="st1">
			<path class="st2" d="M10,10v28.5h28.5V10H10z M30.4,30.4H18.2V18.2h12.2V30.4z"/>
			<path class="st2" d="M10,79.4v28.5h28.5V79.4H10z M30.4,99.7H18.2V87.4h12.2V99.7z"/>
			<path class="st2" d="M79.4,10v28.5h28.5V10H79.4z M99.7,30.4H87.4V18.2h12.2V30.4z"/>
			<path class="st2" d="M99.7,71.2H79.4v8.2h28.5v-8.2H99.7z"/>
			<path class="st2" d="M79.4,87.4v20.4h8.1V95.6h12.2v12.2h8.2V87.4H79.4z"/>
			<path class="st2" d="M46.7,10v8.2H63v20.3h8.2V10H46.7z"/>
			<path class="st2" d="M54.9,79.4v-7.9h-8.2v16H63v20.4h8.2V79.4H54.9z"/>
			<rect x="46.7" y="95.6" class="st2" width="8.2" height="12.2"/>
			<path class="st2" d="M54.9,46.6V26.3h-8.2v20.2C49.4,46.6,52.1,46.6,54.9,46.6z"/>
		</g>
	</g>
	<path class="st2" d="M422.7,903.9c1.4-0.1,2.7,0.4,3.8,1.2c1,0.8,1.7,2,1.9,3.3h-3.1c-0.2-0.5-0.6-1-1-1.3
		c-0.5-0.3-1.1-0.5-1.7-0.5c-0.8,0-1.6,0.3-2.1,0.9c-0.6,0.7-0.8,1.6-0.8,2.5c0,0.9,0.2,1.8,0.8,2.5c0.5,0.6,1.3,1,2.1,0.9
		c0.6,0,1.2-0.2,1.7-0.5c0.5-0.3,0.8-0.8,1-1.3h3.1c-0.2,1.3-0.9,2.4-1.9,3.3c-1.1,0.8-2.4,1.3-3.8,1.2c-1.1,0-2.1-0.2-3.1-0.8
		c-0.9-0.5-1.6-1.3-2-2.2c-0.5-1-0.7-2.1-0.7-3.2c0-1.1,0.2-2.2,0.7-3.2c0.5-0.9,1.2-1.7,2-2.2C420.6,904.1,421.6,903.8,422.7,903.9
		z M433.7,906.4c0.7,0,1.3,0.2,1.9,0.5c0.5,0.3,0.9,0.8,1.2,1.3v-1.7h2.9v9.5h-2.9v-1.7c-0.2,0.6-0.6,1-1.2,1.3
		c-0.6,0.3-1.2,0.5-1.9,0.5c-0.7,0-1.5-0.2-2.1-0.6c-0.6-0.4-1.1-1-1.5-1.7c-0.4-0.8-0.6-1.7-0.5-2.6c0-0.9,0.2-1.8,0.5-2.6
		c0.3-0.7,0.8-1.3,1.5-1.7C432.2,906.6,432.9,906.4,433.7,906.4z M434.6,909c-0.6,0-1.1,0.2-1.5,0.6c-0.4,0.5-0.6,1.1-0.6,1.7
		c0,0.6,0.2,1.2,0.6,1.7c0.4,0.4,0.9,0.6,1.5,0.6c0.6,0,1.1-0.2,1.5-0.6c0.4-0.5,0.6-1.1,0.6-1.7c0-0.6-0.2-1.2-0.6-1.7
		C435.7,909.2,435.2,908.9,434.6,909L434.6,909z M445.1,906.4c1-0.1,2.1,0.3,2.9,0.9c0.7,0.6,1.2,1.4,1.4,2.4h-2.7
		c-0.1-0.4-0.3-0.7-0.5-0.9c-0.3-0.2-0.7-0.3-1-0.3c-0.3,0-0.5,0.1-0.7,0.2c-0.2,0.1-0.3,0.4-0.3,0.6c0,0.3,0.2,0.6,0.5,0.7
		c0.5,0.2,1,0.3,1.5,0.4c0.6,0.1,1.2,0.3,1.8,0.5c0.5,0.2,0.9,0.5,1.2,0.9c0.4,0.5,0.5,1,0.5,1.6c0,0.5-0.1,1-0.4,1.4
		c-0.3,0.4-0.8,0.8-1.3,1c-0.6,0.3-1.3,0.4-2,0.4c-1.1,0.1-2.2-0.2-3.1-0.9c-0.8-0.6-1.3-1.5-1.4-2.4h2.8c0,0.4,0.2,0.7,0.5,0.9
		c0.3,0.2,0.7,0.3,1.2,0.3c0.3,0,0.5-0.1,0.7-0.2c0.2-0.2,0.3-0.4,0.3-0.6c0-0.3-0.2-0.6-0.5-0.7c-0.5-0.2-1-0.3-1.5-0.5
		c-0.6-0.1-1.2-0.3-1.7-0.5c-0.5-0.2-0.9-0.5-1.2-0.8c-0.3-0.4-0.5-1-0.5-1.6c0-0.8,0.3-1.6,1-2.1
		C443.1,906.6,444.1,906.3,445.1,906.4z M457.1,906.4c1,0,1.9,0.4,2.6,1.1c0.7,0.8,1,1.9,1,3v5.5h-2.9v-5.2c0-0.5-0.1-1.1-0.5-1.5
		c-0.3-0.4-0.8-0.6-1.3-0.5c-0.5,0-1,0.2-1.4,0.6c-0.4,0.4-0.6,1-0.5,1.6v5h-2.9v-12.6h2.9v4.8c0.3-0.6,0.7-1,1.2-1.3
		C455.7,906.6,456.4,906.4,457.1,906.4L457.1,906.4z M465.4,903.4V916h-2.9v-12.6L465.4,903.4z M476.5,911c0,0.3,0,0.5-0.1,0.8h-6.6
		c0,0.6,0.2,1.1,0.5,1.5c0.3,0.3,0.8,0.5,1.3,0.5c0.4,0,0.8-0.1,1.1-0.3c0.3-0.2,0.5-0.5,0.6-0.8h3.1c-0.1,0.7-0.4,1.3-0.8,1.8
		c-0.4,0.5-1,1-1.6,1.2c-0.7,0.3-1.4,0.5-2.2,0.5c-0.9,0-1.7-0.2-2.5-0.6c-0.7-0.4-1.3-1-1.7-1.7c-0.4-0.8-0.6-1.7-0.6-2.6
		c0-0.9,0.2-1.8,0.6-2.6c0.4-0.7,1-1.3,1.7-1.7c0.8-0.4,1.6-0.6,2.5-0.6c0.9,0,1.7,0.2,2.5,0.6c0.7,0.4,1.3,0.9,1.7,1.6
		C476.3,909.3,476.5,910.2,476.5,911z M473.5,910.6c0-0.5-0.1-1-0.5-1.4c-0.4-0.3-0.8-0.5-1.3-0.5c-0.5,0-1,0.2-1.3,0.5
		c-0.4,0.4-0.6,0.9-0.6,1.4L473.5,910.6z M481.4,906.4c1-0.1,2.1,0.3,2.9,0.9c0.7,0.6,1.2,1.4,1.4,2.4h-2.7
		c-0.1-0.4-0.3-0.7-0.5-0.9c-0.3-0.2-0.7-0.3-1-0.3c-0.3,0-0.5,0.1-0.7,0.2c-0.2,0.1-0.3,0.4-0.3,0.6c0,0.3,0.2,0.6,0.5,0.7
		c0.5,0.2,1,0.3,1.5,0.4c0.6,0.1,1.2,0.3,1.8,0.5c0.5,0.2,0.9,0.5,1.2,0.9c0.4,0.5,0.5,1,0.5,1.6c0,0.5-0.1,1-0.4,1.4
		c-0.3,0.4-0.8,0.8-1.3,1c-0.6,0.3-1.3,0.4-2,0.4c-1.1,0.1-2.2-0.2-3.1-0.8c-0.8-0.6-1.3-1.5-1.4-2.4h2.8c0,0.4,0.2,0.7,0.5,0.9
		c0.3,0.2,0.8,0.3,1.2,0.3c0.3,0,0.5-0.1,0.7-0.2c0.2-0.2,0.3-0.4,0.3-0.6c0-0.3-0.2-0.6-0.5-0.7c-0.5-0.2-1-0.3-1.5-0.5
		c-0.6-0.1-1.2-0.3-1.7-0.5c-0.5-0.2-0.9-0.5-1.2-0.8c-0.3-0.4-0.5-1-0.5-1.6c0-0.8,0.3-1.6,1-2.1
		C479.5,906.6,480.5,906.3,481.4,906.4z M490.9,906.4c1-0.1,2.1,0.3,2.9,0.9c0.7,0.6,1.2,1.5,1.4,2.4h-2.7c-0.1-0.4-0.3-0.7-0.5-0.9
		c-0.3-0.2-0.7-0.3-1-0.3c-0.3,0-0.5,0.1-0.7,0.2c-0.2,0.1-0.3,0.4-0.3,0.6c0,0.3,0.2,0.6,0.5,0.7c0.5,0.2,1,0.3,1.5,0.4
		c0.6,0.1,1.2,0.3,1.8,0.5c0.5,0.2,0.9,0.5,1.2,0.9c0.4,0.5,0.5,1,0.5,1.6c0,0.5-0.1,1-0.4,1.4c-0.3,0.4-0.8,0.8-1.3,1
		c-0.6,0.3-1.3,0.4-2,0.4c-1.1,0.1-2.2-0.2-3.1-0.9c-0.8-0.6-1.3-1.5-1.4-2.4h2.8c0,0.4,0.2,0.7,0.5,0.9c0.3,0.2,0.8,0.3,1.2,0.3
		c0.3,0,0.5-0.1,0.7-0.2c0.2-0.2,0.3-0.4,0.3-0.6c0-0.3-0.2-0.6-0.5-0.7c-0.5-0.2-1-0.3-1.5-0.5c-0.6-0.1-1.2-0.3-1.7-0.5
		c-0.5-0.2-0.9-0.5-1.2-0.8c-0.3-0.4-0.5-1-0.5-1.6c0-0.8,0.3-1.6,1-2.1C488.9,906.6,489.9,906.3,490.9,906.4z M506.2,906.4
		c0.7,0,1.5,0.2,2.1,0.6c0.6,0.4,1.1,1,1.5,1.7c0.4,0.8,0.6,1.7,0.5,2.6c0,0.9-0.2,1.8-0.5,2.6c-0.3,0.7-0.8,1.3-1.5,1.7
		c-0.6,0.4-1.4,0.6-2.1,0.6c-0.7,0-1.3-0.2-1.9-0.5c-0.5-0.3-0.9-0.8-1.1-1.3v6.2h-2.9v-14h2.9v1.7c0.2-0.6,0.6-1,1.1-1.3
		C504.9,906.5,505.5,906.4,506.2,906.4z M505.2,909c-0.6,0-1.1,0.2-1.5,0.6c-0.4,0.5-0.6,1.1-0.6,1.7c0,0.6,0.2,1.2,0.6,1.7
		c0.4,0.4,0.9,0.6,1.5,0.6c0.6,0,1.1-0.2,1.5-0.6c0.4-0.5,0.6-1.1,0.6-1.7c0-0.6-0.2-1.2-0.6-1.7C506.3,909.1,505.8,908.9,505.2,909
		L505.2,909z M515.4,906.4c0.7,0,1.3,0.2,1.9,0.5c0.5,0.3,0.9,0.8,1.2,1.3v-1.7h2.9v9.5h-2.9v-1.7c-0.2,0.6-0.6,1-1.2,1.3
		c-0.6,0.3-1.2,0.5-1.9,0.5c-0.7,0-1.5-0.2-2.1-0.6c-0.6-0.4-1.1-1-1.5-1.7c-0.4-0.8-0.6-1.7-0.5-2.6c0-0.9,0.2-1.8,0.5-2.6
		c0.3-0.7,0.8-1.3,1.5-1.7C513.9,906.6,514.6,906.4,515.4,906.4z M516.3,909c-0.6,0-1.1,0.2-1.5,0.6c-0.4,0.5-0.6,1.1-0.6,1.7
		c0,0.6,0.2,1.2,0.6,1.7c0.4,0.4,0.9,0.6,1.5,0.6c0.6,0,1.1-0.2,1.5-0.6c0.4-0.5,0.6-1.1,0.6-1.7c0-0.6-0.2-1.2-0.6-1.7
		C517.4,909.2,516.9,908.9,516.3,909L516.3,909z M525.5,906.5l2.3,5.8l2.1-5.8h3.2l-5.9,14H524l2.2-4.9l-4-9.1L525.5,906.5z
		 M546.4,906.4c1-0.1,2,0.3,2.8,1.1c0.7,0.8,1.1,1.9,1,3v5.5h-2.9v-5.2c0-0.5-0.1-1-0.5-1.4c-0.3-0.3-0.8-0.5-1.3-0.5
		c-0.5,0-1,0.2-1.4,0.5c-0.4,0.4-0.5,1-0.5,1.5v5h-2.9v-5.2c0-0.5-0.1-1-0.5-1.4c-0.3-0.3-0.8-0.5-1.3-0.5c-0.5,0-1,0.2-1.4,0.5
		c-0.4,0.4-0.5,1-0.5,1.5v5h-2.9v-9.5h2.9v1.6c0.2-0.5,0.6-1,1.1-1.3c0.6-0.3,1.2-0.5,1.8-0.5c0.7,0,1.3,0.2,1.9,0.5
		c0.6,0.3,1,0.8,1.3,1.4c0.3-0.6,0.8-1.1,1.4-1.4C545,906.6,545.7,906.4,546.4,906.4L546.4,906.4z M561.1,911c0,0.3,0,0.5-0.1,0.8
		h-6.6c0,0.6,0.2,1.1,0.5,1.5c0.3,0.3,0.8,0.5,1.3,0.5c0.4,0,0.8-0.1,1.1-0.3c0.3-0.2,0.5-0.5,0.6-0.8h3.1c-0.1,0.7-0.4,1.3-0.8,1.8
		c-0.4,0.5-1,1-1.6,1.2c-0.7,0.3-1.4,0.5-2.2,0.5c-0.9,0-1.7-0.2-2.5-0.6c-0.7-0.4-1.3-1-1.7-1.7c-0.4-0.8-0.6-1.7-0.6-2.6
		c0-0.9,0.2-1.8,0.6-2.6c0.4-0.7,1-1.3,1.7-1.7c0.8-0.4,1.6-0.6,2.5-0.6c0.9,0,1.7,0.2,2.5,0.6c0.7,0.4,1.3,0.9,1.7,1.6
		C560.9,909.3,561.1,910.2,561.1,911z M558.1,910.6c0-0.5-0.1-1-0.5-1.4c-0.4-0.3-0.8-0.5-1.3-0.5c-0.5,0-1,0.2-1.3,0.5
		c-0.4,0.4-0.6,0.9-0.6,1.4L558.1,910.6z M568.6,906.4c1,0,1.9,0.4,2.6,1.1c0.7,0.8,1,1.9,1,3v5.5h-2.9v-5.2c0-0.5-0.1-1.1-0.5-1.5
		c-0.3-0.4-0.8-0.6-1.3-0.5c-0.5,0-1,0.2-1.4,0.6c-0.4,0.4-0.6,1-0.5,1.6v5h-2.9v-9.5h2.9v1.7c0.3-0.6,0.7-1,1.2-1.3
		C567.3,906.6,567.9,906.4,568.6,906.4z M579.4,913.5v2.5h-1.3c-0.9,0.1-1.9-0.2-2.6-0.8c-0.7-0.7-1-1.7-0.9-2.7V909h-1.3v-2.4h1.3
		v-2.3h2.9v2.3h1.9v2.4h-1.9v3.5c0,0.3,0.1,0.6,0.2,0.8c0.2,0.2,0.5,0.2,0.8,0.2L579.4,913.5z M584.5,906.4c1-0.1,2.1,0.3,2.9,0.9
		c0.7,0.6,1.2,1.4,1.3,2.4H586c-0.1-0.4-0.3-0.7-0.5-0.9c-0.3-0.2-0.7-0.3-1-0.3c-0.3,0-0.5,0.1-0.7,0.2c-0.2,0.1-0.3,0.4-0.3,0.6
		c0,0.3,0.2,0.6,0.5,0.7c0.5,0.2,1,0.3,1.5,0.4c0.6,0.1,1.2,0.3,1.8,0.5c0.5,0.2,0.9,0.5,1.2,0.9c0.4,0.5,0.5,1,0.5,1.6
		c0,0.5-0.1,1-0.4,1.4c-0.3,0.4-0.8,0.8-1.3,1c-0.6,0.3-1.3,0.4-2,0.4c-1.1,0.1-2.2-0.2-3.1-0.9c-0.8-0.6-1.3-1.5-1.4-2.4h2.8
		c0,0.4,0.2,0.7,0.5,0.9c0.3,0.2,0.8,0.3,1.2,0.3c0.3,0,0.5-0.1,0.7-0.2c0.2-0.2,0.3-0.4,0.3-0.6c0-0.3-0.2-0.6-0.5-0.7
		c-0.5-0.2-1-0.3-1.5-0.5c-0.6-0.1-1.2-0.3-1.7-0.5c-0.5-0.2-0.9-0.5-1.2-0.8c-0.3-0.4-0.5-1-0.5-1.6c0-0.8,0.3-1.6,1-2.1
		C582.6,906.6,583.6,906.3,584.5,906.4z"/>
</g>
</svg>
